<?xml version="1.0" encoding="UTF-8" standalone="no"?>
<!DOCTYPE svg PUBLIC "-//W3C//DTD SVG 1.1//EN" "http://www.w3.org/Graphics/SVG/1.1/DTD/svg11.dtd">
<svg width="100%" height="100%" viewBox="0 0 880 880" version="1.1" xmlns="http://www.w3.org/2000/svg" xmlns:xlink="http://www.w3.org/1999/xlink" xml:space="preserve" xmlns:serif="http://www.serif.com/" style="fill-rule:evenodd;clip-rule:evenodd;stroke-linejoin:round;stroke-miterlimit:1.41421;">
    <g transform="matrix(1,0,0,1,-11380.3,-16306.4)">
        <path d="M12259.6,17103.3C12259.6,17125.2 12250.9,17146.1 12235.4,17161.6C12220,17177 12199,17185.7 12177.2,17185.7C12110.3,17185.7 12018.7,17185.7 11966.4,17185.7C11943.6,17185.7 11925.2,17167.2 11925.2,17144.5C11925.2,17144.5 11925.2,17144.5 11925.2,17144.5C11925.2,17121.8 11943.6,17103.3 11966.4,17103.3C12013.5,17103.3 12090.1,17103.3 12136.9,17103.3C12159.1,17103.3 12177.2,17085.3 12177.2,17063C12177.2,17016.2 12177.2,16939.6 12177.2,16892.5C12177.2,16869.8 12195.6,16851.3 12218.4,16851.3C12218.4,16851.3 12218.4,16851.3 12218.4,16851.3C12241.1,16851.3 12259.6,16869.8 12259.6,16892.5C12259.6,16944.8 12259.6,17036.4 12259.6,17103.3ZM11462.6,17063C11462.6,17085.3 11480.7,17103.3 11503,17103.3C11549.7,17103.3 11626.3,17103.3 11673.4,17103.3C11696.2,17103.3 11714.6,17121.8 11714.6,17144.5C11714.6,17144.5 11714.6,17144.5 11714.6,17144.5C11714.6,17167.2 11696.2,17185.7 11673.4,17185.7C11621.1,17185.7 11529.5,17185.7 11462.6,17185.7C11440.8,17185.7 11419.8,17177 11404.4,17161.6C11388.9,17146.1 11380.3,17125.2 11380.3,17103.3C11380.3,17036.4 11380.3,16944.8 11380.3,16892.5C11380.3,16869.8 11398.7,16851.3 11421.4,16851.3C11421.4,16851.3 11421.4,16851.3 11421.4,16851.3C11444.2,16851.3 11462.6,16869.8 11462.6,16892.5C11462.6,16939.6 11462.6,17016.2 11462.6,17063ZM12259.6,16599.6C12259.6,16622.3 12241.1,16640.7 12218.4,16640.7C12218.4,16640.7 12218.4,16640.7 12218.4,16640.7C12195.6,16640.7 12177.2,16622.3 12177.2,16599.6C12177.2,16552.5 12177.2,16475.8 12177.2,16429.1C12177.2,16406.8 12159.1,16388.7 12136.9,16388.7C12090.1,16388.7 12013.5,16388.7 11966.4,16388.7C11943.6,16388.7 11925.2,16370.3 11925.2,16347.6C11925.2,16347.6 11925.2,16347.6 11925.2,16347.6C11925.2,16324.8 11943.6,16306.4 11966.4,16306.4C12018.7,16306.4 12110.3,16306.4 12177.2,16306.4C12199,16306.4 12220,16315.1 12235.4,16330.5C12250.9,16346 12259.6,16366.9 12259.6,16388.7C12259.6,16455.7 12259.6,16547.2 12259.6,16599.6ZM11714.6,16347.6C11714.6,16370.3 11696.2,16388.7 11673.4,16388.7C11626.3,16388.7 11549.7,16388.7 11503,16388.7C11480.7,16388.7 11462.6,16406.8 11462.6,16429.1C11462.6,16475.8 11462.6,16552.5 11462.6,16599.6C11462.6,16622.3 11444.2,16640.7 11421.4,16640.7C11421.4,16640.7 11421.4,16640.7 11421.4,16640.7C11398.7,16640.7 11380.3,16622.3 11380.3,16599.6C11380.3,16547.2 11380.3,16455.7 11380.3,16388.7C11380.3,16366.9 11388.9,16346 11404.4,16330.5C11419.8,16315.1 11440.8,16306.4 11462.6,16306.4C11529.5,16306.4 11621.1,16306.4 11673.4,16306.4C11696.2,16306.4 11714.6,16324.8 11714.6,16347.6C11714.6,16347.6 11714.6,16347.6 11714.6,16347.6Z" style="fill:rgb(129,81,255);"/>
    </g>
</svg>
