<?xml version="1.0" encoding="UTF-8" standalone="no"?>
<!DOCTYPE svg PUBLIC "-//W3C//DTD SVG 1.1//EN" "http://www.w3.org/Graphics/SVG/1.1/DTD/svg11.dtd">
<svg width="100%" height="100%" viewBox="0 0 66 37" version="1.1" xmlns="http://www.w3.org/2000/svg" xmlns:xlink="http://www.w3.org/1999/xlink" xml:space="preserve" xmlns:serif="http://www.serif.com/" style="fill-rule:evenodd;clip-rule:evenodd;stroke-linejoin:round;stroke-miterlimit:1.41421;">
    <g transform="matrix(1,0,0,1,-43623.7,-3111.88)">
        <g transform="matrix(0.48,0,0,0.36,20184.7,2192.07)">
            <g transform="matrix(-2.08333,-3.4018e-16,2.55135e-16,-2.77778,148626,5200.31)">
                <path d="M47901.7,952.307C47901.7,952.307 47896.2,952.307 47892.8,952.307C47891.1,952.307 47889.5,951.805 47888,950.864C47884.9,948.821 47879.1,945.008 47874.7,942.092C47871.1,939.707 47866.4,939.707 47862.8,942.092C47858.3,945.008 47852.5,948.821 47849.4,950.864C47848,951.805 47846.3,952.307 47844.6,952.307C47841.2,952.307 47835.8,952.307 47835.8,952.307C47835.8,952.307 47853.3,940.814 47862.8,934.569C47866.4,932.184 47871.1,932.184 47874.7,934.569C47884.2,940.814 47901.7,952.307 47901.7,952.307Z" style="fill:white;fill-opacity:0.941176;"/>
            </g>
            <g transform="matrix(-2.08333,-3.4018e-16,2.55135e-16,-2.77778,148626,5241.06)">
                <path d="M47900.9,951.55C47900.9,951.55 47895.4,951.55 47892.1,951.55C47890.4,951.55 47888.7,951.064 47887.3,950.151C47884.3,948.236 47878.9,944.727 47874.7,941.998C47871.1,939.666 47866.4,939.688 47862.8,942.052C47858.7,944.752 47853.5,948.196 47850.6,950.107C47849.1,951.048 47847.5,951.55 47845.8,951.55C47842.4,951.55 47837,951.55 47837,951.55C47837,951.55 47853.6,940.595 47862.8,934.543C47866.4,932.172 47871.1,932.158 47874.7,934.508C47884,940.552 47900.9,951.55 47900.9,951.55Z" style="fill:white;fill-opacity:0.941176;"/>
            </g>
        </g>
    </g>
</svg>
