<?xml version="1.0" encoding="UTF-8" standalone="no"?>
<!DOCTYPE svg PUBLIC "-//W3C//DTD SVG 1.1//EN" "http://www.w3.org/Graphics/SVG/1.1/DTD/svg11.dtd">
<svg width="100%" height="100%" viewBox="0 0 219 198" version="1.1" xmlns="http://www.w3.org/2000/svg" xmlns:xlink="http://www.w3.org/1999/xlink" xml:space="preserve" xmlns:serif="http://www.serif.com/" style="fill-rule:evenodd;clip-rule:evenodd;stroke-linejoin:round;stroke-miterlimit:1.41421;">
    <g transform="matrix(1,0,0,1,-44711.2,-133.162)">
        <g transform="matrix(1,0,0,1,44007.7,0)">
            <g transform="matrix(1.29344,0,0,1.29344,370.927,-109.178)">
                <path d="M391.884,229.423L425.946,229.423C425.946,229.423 414.485,249.33 409.624,257.772C408.301,260.07 405.852,261.486 403.201,261.486C397.756,261.486 388.63,261.486 385.015,261.486C384.101,261.486 383.296,262.088 383.038,262.966C381.093,269.592 373.169,296.589 370.647,305.182C370.464,305.805 370.585,306.477 370.974,306.997C371.363,307.516 371.974,307.822 372.623,307.822C379.603,307.822 397.452,307.822 397.452,307.822C397.452,307.822 385.991,327.729 381.13,336.171C379.807,338.468 377.358,339.884 374.707,339.884C368.958,339.884 359.461,339.884 359.461,339.884L278.427,339.884C271.722,339.884 265.409,336.724 261.39,331.357C257.372,325.989 256.118,319.042 258.006,312.608C264.287,291.21 272.799,262.211 277.935,244.712C280.595,235.649 288.911,229.423 298.356,229.423L391.884,229.423ZM350.378,265.004C350.621,264.174 350.459,263.278 349.941,262.586C349.423,261.894 348.608,261.486 347.743,261.486C338.474,261.486 314.329,261.486 307.129,261.486C305.911,261.486 304.839,262.289 304.495,263.458C302.402,270.591 295.205,295.111 292.506,304.304C292.263,305.133 292.424,306.03 292.943,306.722C293.461,307.414 294.275,307.822 295.14,307.822C304.41,307.822 328.555,307.822 335.754,307.822C336.973,307.822 338.045,307.019 338.388,305.85C340.482,298.717 347.679,274.197 350.378,265.004ZM369.784,198.887C371.79,192.054 378.059,187.361 385.18,187.361C394.281,187.361 405.23,187.361 405.23,187.361C405.23,187.361 399.609,206.513 396.854,215.899C395.933,219.034 393.414,221.442 390.24,222.219C380.62,224.575 360.821,229.423 360.821,229.423C360.821,229.423 366.129,211.34 369.784,198.887Z" style="fill:white;"/>
            </g>
        </g>
    </g>
</svg>
