<?xml version="1.0" encoding="UTF-8" standalone="no"?>
<!DOCTYPE svg PUBLIC "-//W3C//DTD SVG 1.1//EN" "http://www.w3.org/Graphics/SVG/1.1/DTD/svg11.dtd">
<svg width="100%" height="100%" viewBox="0 0 1289 927" version="1.1" xmlns="http://www.w3.org/2000/svg" xmlns:xlink="http://www.w3.org/1999/xlink" xml:space="preserve" xmlns:serif="http://www.serif.com/" style="fill-rule:evenodd;clip-rule:evenodd;stroke-linejoin:round;stroke-miterlimit:1.41421;">
    <g transform="matrix(1,0,0,1,-9473.47,-8539.91)">
        <g transform="matrix(11.0286,0,0,11.0286,-57188.8,-85679.2)">
            <path d="M6119.14,8543.17C6121.37,8543.21 6133.84,8543.88 6146.89,8553.67C6146.89,8553.67 6161.29,8579.77 6161.29,8611.97C6161.29,8611.97 6152.79,8626.47 6130.69,8627.17C6130.69,8627.17 6127.09,8622.87 6124.09,8619.07C6137.19,8615.37 6142.19,8607.17 6142.19,8607.17C6138.09,8609.87 6134.19,8611.77 6130.69,8613.07C6125.69,8615.17 6120.89,8616.57 6116.19,8617.37C6106.59,8619.17 6097.79,8618.67 6090.29,8617.27C6084.59,8616.17 6079.69,8614.57 6075.59,8612.97C6073.29,8612.07 6070.79,8610.97 6068.29,8609.57C6068.18,8609.49 6068.07,8609.43 6067.95,8609.37L6067.73,8609.26C6067.62,8609.2 6067.5,8609.14 6067.39,8609.07C6067.19,8608.97 6067.09,8608.87 6066.99,8608.77C6065.19,8607.77 6064.19,8607.07 6064.19,8607.07C6064.19,8607.07 6068.99,8615.07 6081.69,8618.87C6078.69,8622.67 6074.99,8627.17 6074.99,8627.17C6052.89,8626.47 6044.49,8611.97 6044.49,8611.97C6044.49,8579.77 6058.89,8553.67 6058.89,8553.67C6073.29,8542.87 6086.99,8543.17 6086.99,8543.17L6087.99,8544.37C6069.99,8549.57 6061.69,8557.47 6061.69,8557.47C6061.69,8557.47 6063.89,8556.27 6067.59,8554.57C6078.29,8549.87 6086.79,8548.57 6090.29,8548.27C6090.89,8548.17 6091.39,8548.07 6091.99,8548.07C6098.09,8547.27 6104.99,8547.07 6112.19,8547.87C6121.69,8548.97 6131.89,8551.77 6142.29,8557.47C6142.29,8557.47 6134.39,8549.97 6117.39,8544.77L6118.79,8543.17C6118.79,8543.17 6118.85,8543.16 6118.95,8543.17L6119.14,8543.17ZM6084.19,8580.47C6078.49,8580.47 6073.99,8585.47 6073.99,8591.57C6073.99,8597.67 6078.59,8602.67 6084.19,8602.67C6089.89,8602.67 6094.39,8597.67 6094.39,8591.57C6094.49,8585.47 6089.89,8580.47 6084.19,8580.47ZM6120.69,8580.47C6114.99,8580.47 6110.49,8585.47 6110.49,8591.57C6110.49,8597.67 6115.09,8602.67 6120.69,8602.67C6126.39,8602.67 6130.89,8597.67 6130.89,8591.57C6130.89,8585.47 6126.39,8580.47 6120.69,8580.47Z" style="fill:rgb(255,84,86);"/>
        </g>
    </g>
</svg>
