<?xml version="1.0" encoding="UTF-8" standalone="no"?>
<!DOCTYPE svg PUBLIC "-//W3C//DTD SVG 1.1//EN" "http://www.w3.org/Graphics/SVG/1.1/DTD/svg11.dtd">
<svg width="100%" height="100%" viewBox="0 0 946 927" version="1.1" xmlns="http://www.w3.org/2000/svg" xmlns:xlink="http://www.w3.org/1999/xlink" xml:space="preserve" xmlns:serif="http://www.serif.com/" style="fill-rule:evenodd;clip-rule:evenodd;stroke-linejoin:round;stroke-miterlimit:1.41421;">
    <g transform="matrix(1,0,0,1,-12060.4,-8539.91)">
        <g transform="matrix(2.11147,0,0,2.11147,-6542.71,-6652.1)">
            <path d="M8980,7621.87C8980,7625.35 8978.35,7628.61 8975.55,7630.67C8972.75,7632.73 8969.15,7633.34 8965.83,7632.3C8875.76,7603.25 8810.5,7518.68 8810.5,7419C8810.5,7295.37 8910.87,7195 9034.5,7195C9158.13,7195 9258.5,7295.37 9258.5,7419C9258.5,7519.87 9194.4,7605.26 9102.91,7633.28C9099.62,7634.28 9096.05,7633.68 9093.28,7631.64C9090.51,7629.61 9088.85,7626.39 9088.82,7622.96C9088.53,7597.62 9088,7547 9088,7547C9088.7,7536.7 9083.26,7527.13 9076.01,7519.13C9075.45,7518.52 9075.27,7517.65 9075.55,7516.87C9075.83,7516.09 9076.52,7515.52 9077.34,7515.41C9122.21,7508.99 9154.77,7500.35 9169,7442C9181.58,7390.41 9163.45,7363.95 9154.21,7353.45C9152.3,7351.31 9151.68,7348.32 9152.59,7345.6C9157.66,7330.12 9157.54,7313.74 9150.29,7296.11C9148.98,7292.94 9145.79,7290.96 9142.37,7291.19C9125.66,7292.42 9108.53,7299.49 9091.04,7311.81C9089.09,7313.19 9086.64,7313.63 9084.34,7313.02C9069.94,7309.2 9054.79,7306.03 9034.79,7306.94C9034.26,7306.96 9033.74,7306.96 9033.21,7306.94C9013.21,7306.03 8998.06,7309.2 8983.66,7313.02C8981.36,7313.63 8978.91,7313.19 8976.96,7311.81C8959.47,7299.49 8942.34,7292.42 8925.63,7291.19C8922.21,7290.97 8919.03,7292.94 8917.72,7296.11C8910.46,7313.74 8910.34,7330.12 8915.41,7345.6C8916.32,7348.32 8915.7,7351.31 8913.79,7353.45C8904.55,7363.95 8886.42,7390.41 8899,7442C8913.23,7500.36 8945.81,7509 8990.71,7515.4C8991.53,7515.52 8992.22,7516.07 8992.5,7516.85C8992.79,7517.63 8992.62,7518.5 8992.07,7519.12C8986.35,7525.59 8982.71,7532.74 8982.03,7540.87C8981.76,7544.1 8979.55,7546.85 8976.45,7547.8C8968.12,7550.4 8952.2,7554.35 8942,7551C8927.66,7546.3 8913.81,7524.14 8909,7517C8904.19,7509.86 8875.99,7499.99 8874,7509C8872.01,7518.01 8891.7,7520.33 8897,7532C8902.3,7543.67 8909.3,7569.1 8934,7575C8948.95,7578.57 8962.65,7578.19 8971.14,7577.33C8973.4,7577.08 8975.65,7577.81 8977.34,7579.33C8979.03,7580.84 8980,7583.01 8980,7585.28C8980,7595.03 8980,7610.52 8980,7621.87Z" style="fill:rgb(255,84,86);"/>
        </g>
    </g>
</svg>
